<?xml version="1.0" encoding="UTF-8"?>
<!DOCTYPE svg PUBLIC "-//W3C//DTD SVG 1.1//EN" "http://www.w3.org/Graphics/SVG/1.1/DTD/svg11.dtd">
<!-- Creator: CorelDRAW -->
<svg xmlns="http://www.w3.org/2000/svg" xml:space="preserve" width="192px" height="192px" version="1.1" style="shape-rendering:geometricPrecision; text-rendering:geometricPrecision; image-rendering:optimizeQuality; fill-rule:evenodd; clip-rule:evenodd"
viewBox="0 0 0.96 0.96"
 xmlns:xlink="http://www.w3.org/1999/xlink"
 xmlns:xodm="http://www.corel.com/coreldraw/odm/2003">
 <defs>
  <style type="text/css">
   <![CDATA[
    .fil1 {fill:#FEFEFE}
    .fil0 {fill:url(#id0)}
   ]]>
  </style>
  <linearGradient id="id0" gradientUnits="userSpaceOnUse" x1="0" y1="0.48" x2="0.96" y2="0.48">
   <stop offset="0" style="stop-opacity:1; stop-color:#FF7F00"/>
   <stop offset="1" style="stop-opacity:1; stop-color:#FBB700"/>
  </linearGradient>
 </defs>
 <g id="Layer_x0020_1">
  <metadata id="CorelCorpID_0Corel-Layer"/>
  <rect class="fil0" width="0.96" height="0.96" rx="0.22" ry="0.22"/>
  <g id="_1854685250160">
   <path class="fil1" d="M0.09 0.55c0,0.04 0.06,0.02 0.12,0.02 0.02,0 0.06,0 0.07,0l0 0.05c0,0.02 -0.01,0.02 -0.02,0.03 -0.01,0.01 -0.01,0.02 -0.02,0.02l-0.03 0.04c-0.02,0.02 -0.01,0.08 0.03,0.06l0.09 -0.05c0.02,-0.01 0.04,-0.02 0.05,-0.03 0.01,0 0.05,-0.03 0.06,-0.03l0.09 0c0,0 0.01,0.01 0.01,0.01 0.05,0.03 0.11,0.06 0.16,0.09 0.01,0.01 0.02,0.02 0.03,0.02 0.04,0 0.03,-0.06 0.03,-0.07 -0.01,-0.01 -0.05,-0.05 -0.06,-0.06 -0.02,-0.03 -0.01,-0.01 -0.01,-0.08 0.01,0 0.04,0 0.06,0 0.06,0 0.12,0.02 0.12,-0.02 0,-0.02 -0.03,-0.1 -0.03,-0.12l-0.03 -0.09c-0.01,-0.02 -0.03,-0.01 -0.03,0 0,0.01 0.01,0.02 0.01,0.03l0.05 0.18c-0.11,-0.01 -0.17,-0.02 -0.28,0.04 -0.03,0.01 -0.04,0.02 -0.04,0.04l-0.08 0c0,-0.01 0,-0.02 -0.01,-0.03 -0.04,-0.03 -0.16,-0.06 -0.22,-0.06 -0.03,0 -0.06,0.01 -0.09,0.01l0.05 -0.18c0.01,-0.01 0.02,-0.04 0,-0.04 -0.02,0 -0.02,0.03 -0.03,0.05l-0.04 0.14c0,0.01 -0.01,0.02 -0.01,0.03z"/>
   <path class="fil1" d="M0.17 0.48c0,0.04 0.03,0.03 0.04,0.03 0.01,0.01 0.02,0.01 0.03,0.01 0.08,0 0.17,0.04 0.23,0.08l0 -0.24c0,-0.01 0,-0.01 -0.01,-0.02 -0.06,-0.05 -0.12,-0.06 -0.2,-0.07 -0.04,-0.01 -0.04,0.01 -0.05,0.05l-0.04 0.14c0,0.01 0,0.02 0,0.02z"/>
   <path class="fil1" d="M0.63 0.38l-0.05 -0.05c0,-0.01 0,-0.01 -0.01,-0.01l-0.07 0c-0.01,0 -0.01,0 -0.01,0 0,0.01 0.02,0.02 0.02,0.03 0,0 0,0 0,0 0.01,0 0.01,0.01 0.01,0.01l0.01 0.01c0.01,0.01 0.01,0.01 0.01,0.01 0,0 0,0 0,0 0.01,0.01 0.01,0.01 0.01,0.01 0,0 0,0 0,0l0.03 0.04c0.02,0.01 0.04,0.03 0.05,0.05 0.01,0 0.02,0.02 0.02,0.02 0,0 0.01,-0.01 0.01,-0.01 0,0 0,-0.01 0,-0.01 0.01,-0.03 0.02,-0.05 0.03,-0.07l0.02 -0.04c0,-0.02 0.01,-0.03 0.02,-0.04 0,-0.01 0.01,-0.01 0.01,-0.02l0.03 -0.04c0.01,-0.01 0.01,-0.01 0.01,-0.01l0.02 -0.03c0.01,0 0.01,0 0.01,0l0.02 -0.03c0.02,-0.01 0.01,-0.01 0,-0.01 0,0 -0.01,0 -0.01,0.01 -0.02,0 -0.03,0.01 -0.05,0.02 -0.01,0.01 -0.04,0.03 -0.05,0.04 0,0 0,0.01 0,0.01l-0.03 0.02 -0.02 0.03c-0.01,0.01 -0.02,0.02 -0.02,0.02 -0.01,0.01 -0.02,0.03 -0.02,0.04z"/>
  </g>
 </g>
</svg>
