<svg xmlns="http://www.w3.org/2000/svg" xml:space="preserve" width="256" height="256" style="shape-rendering:geometricPrecision;text-rendering:geometricPrecision;image-rendering:optimizeQuality;fill-rule:evenodd;clip-rule:evenodd" viewBox="0 0 2.13 2.13"><defs><linearGradient id="id0" gradientUnits="userSpaceOnUse" x1="0" y1="1.07" x2="2.13" y2="1.07"><stop offset="0" style="stop-opacity:1;stop-color:#ff7f00"/><stop offset="1" style="stop-opacity:1;stop-color:#fbb700"/></linearGradient><style>.fil1{fill:#fefefe}</style></defs><g id="Layer_x0020_1"><rect width="2.13" height="2.13" rx=".48" ry=".48" style="fill:url(#id0)"/><g id="_1666779688480"><path class="fil1" d="M.97 1.6H.41c0-.01 0-.03.01-.03h.56c.01.01.01.03-.01.03zm0-.13H.41c0-.01 0-.03.01-.03h.55c.02 0 .02.03 0 .03zm-.56-.15c0-.01.01-.02.01-.02h.45c.02 0 .02.04 0 .04-.06 0-.42 0-.46-.01v-.01zm0-.14.01-.01h.23c.02 0 .02.03 0 .03-.04 0-.21.01-.24 0v-.02zm.25-.11H.41c0-.01 0-.03.01-.03.05 0 .21-.01.24 0 .01.01.01.01 0 .03zM.45.58C.45.56.46.55.48.54.49.53.5.51.52.51s.03.03.04.03c.03 0 0-.07.05-.07.07 0 .08-.01.08.06C.7.53.7.54.71.54c0 0 .03-.03.04-.03.02 0 .07.05.07.07C.82.59.82.6.81.61.8.61.78.63.81.64c.05 0 .05 0 .05.09C.86.77.81.75.8.76.78.77.82.79.82.82.82.84.77.88.76.88.73.88.74.88.71.86H.7C.68.87.7.86.69.9.68.93.65.92.61.92.58.92.57.9.57.86H.56C.54.87.54.88.51.88.5.88.48.86.47.86.45.83.43.82.46.79.48.77.47.77.47.76.4.76.41.74.41.67.41.62.5.66.46.61.46.6.45.59.45.58zM.35.44V1.7c0 .02.02.04.05.04h.86c.01 0 .02-.01.03-.02-.02-.03-.38-.51-.44-.59-.04-.05-.04-.04 0-.07.02-.01.03-.02.04-.03l.22-.16c0-.06-.03-.05.04-.07L1.3.77c0-.08.01-.24 0-.32C1.3.42 1.28.4 1.25.4H.41C.38.4.35.41.35.44z"/><path class="fil1" d="M1.45 1.11c.04 0 .07.01.1.04.08.08.02.21-.09.21-.12 0-.17-.13-.1-.21.02-.02.06-.04.09-.04zM1.23.96c0 .02.03.2.04.24l.08.38c.05 0 .08.03.1.06.03 0 .16-.03.18-.03 0-.03.01-.05.02-.06.01-.01.01-.02.02-.02.01-.01.01-.02.02-.02L1.57.9c-.01-.02-.01 0-.04-.01a.09.09 0 0 1-.06-.06l-.08.01c-.02.01-.05.02-.08.02-.02.01-.02 0-.02.02-.01.04-.02.06-.06.08z"/><path class="fil1" d="M1.48.79c.01 0 .01.01.02.03.02.04.05.04.09.04.01.01 0 0 .01.03l.1.47c0 .03.01.05.02.08 0 .02.01.07.01.09-.03.02-.02.01-.03.02-.05.02-.03.07-.03.08-.01.01-.03.01-.05.01-.03.01-.06.02-.09.02-.02.01-.08.02-.1.02-.01 0-.01-.01-.01-.02-.02-.04-.06-.04-.09-.04-.01-.02-.01-.02-.01-.05L1.19.98c0-.02-.01-.03.01-.04.01-.01.05-.01.05-.07 0-.02-.01-.03.04-.04L1.45.8c.01 0 .01-.01.03-.01zm-.34.05c0 .01 0 .03.01.04v.04l.13.6.03.16c.01.06.01.05.03.05l.44-.09-.02-.11c-.01-.04-.02-.08-.02-.12l-.05-.22a.36.36 0 0 1-.02-.11L1.59.74c-.11.03-.23.05-.34.07l-.11.03zM1.01 1.05c0 .02.01.03.01.06-.01.04-.01.04-.03.06.01.01.24.32.25.33-.01-.05-.02-.09-.03-.13l-.07-.33c0-.02-.01-.05-.01-.07a.21.21 0 0 0-.06.04.21.21 0 0 1-.06.04zM.53.7C.53.6.65.56.71.62.75.67.75.76.67.79.67.8.64.8.63.8a.1.1 0 0 1-.1-.1zM.56.57C.55.57.52.55.52.54L.48.58.5.6C.52.63.5.66.49.67H.44v.05C.5.73.49.73.51.75.51.77.52.78.5.79.5.8.49.81.48.81l.04.04C.53.84.54.82.56.82.57.82.6.83.6.84c.01 0 .01.03.01.05C.68.89.65.9.67.84.69.83.7.82.71.82c.01 0 .03.02.04.03L.79.82C.77.78.75.79.77.75.78.73.77.73.82.72V.67C.81.67.78.67.78.66.77.66.76.63.76.62.76.6.78.6.79.58L.75.54C.72.56.72.58.69.57.67.56.66.56.66.53S.67.51.61.51C.61.52.61.55.6.55.6.56.57.57.56.57z"/><path class="fil1" d="M.86 1.09c.01.01.04.06.05.07l.36.47c0-.01-.01-.02-.01-.04-.01-.03-.04-.06-.06-.08-.03-.04-.05-.08-.08-.11a.834.834 0 0 1-.08-.12.763.763 0 0 1-.08-.11c0-.03.03-.01.03-.08 0-.04-.05-.02.01-.07l.08-.06c.02-.01.03-.02.04-.03V.91a.25.25 0 0 0-.07.04l-.19.14zM1.37 1.23c0 .03 0 .05.03.08.05.05.15.01.15-.07 0-.05-.04-.1-.08-.1h-.02c-.04 0-.08.05-.08.09zM.56.7c0 .07.08.08.12.05C.73.71.7.62.63.63.6.63.56.66.56.7z"/></g></g></svg>