<?xml version="1.0" encoding="UTF-8"?>
<!DOCTYPE svg PUBLIC "-//W3C//DTD SVG 1.1//EN" "http://www.w3.org/Graphics/SVG/1.1/DTD/svg11.dtd">
<!-- Creator: CorelDRAW -->
<svg xmlns="http://www.w3.org/2000/svg" xml:space="preserve" width="0.423335in" height="0.423335in" version="1.1" style="shape-rendering:geometricPrecision; text-rendering:geometricPrecision; image-rendering:optimizeQuality; fill-rule:evenodd; clip-rule:evenodd"
viewBox="0 0 316.26 316.26"
 xmlns:xlink="http://www.w3.org/1999/xlink"
 xmlns:xodm="http://www.corel.com/coreldraw/odm/2003">
 <defs>
  <style type="text/css">
   <![CDATA[
    .fil1 {fill:#FEFEFE}
    .fil0 {fill:url(#id0)}
   ]]>
  </style>
  <linearGradient id="id0" gradientUnits="userSpaceOnUse" x1="154.39" y1="-47.31" x2="158.13" y2="316.26">
   <stop offset="0" style="stop-opacity:1; stop-color:#E87100"/>
   <stop offset="1" style="stop-opacity:1; stop-color:#F9CC4D"/>
  </linearGradient>
 </defs>
 <g id="Layer_x0020_1">
  <metadata id="CorelCorpID_0Corel-Layer"/>
  <g id="_2606054376608">
   <path class="fil0" d="M316.26 69.72l0 176.81c0,38.35 -31.37,69.72 -69.72,69.72l-176.81 0c-38.35,0 -69.72,-31.37 -69.72,-69.72l0 -176.81c0,-38.35 31.37,-69.72 69.72,-69.72l176.81 0c38.35,0 69.72,31.37 69.72,69.72z"/>
   <g>
    <path class="fil1" d="M100.44 243.13l39.73 -7.81c19.43,-6.05 26.33,-19.95 37.19,-34.39 3.03,-4.02 26.38,-35.29 27.46,-38.24 2.07,-5.59 1.63,-10.42 -2.21,-14.79 -3.53,-4.02 -7.07,-4.66 -11.9,-4.66 -5.9,0 -13.69,8.08 -19.46,12.59 -1.32,1.03 -16.73,14.12 -17.93,14.12 -14.37,0 -11.28,1.22 -14.43,-5.87 -0.94,-2.11 -2.58,-4.6 -3.35,-6.8 -0.51,-1.46 -0.49,-2.23 -1.06,-3.75 -0.31,-0.82 -1.51,-3.27 -1.6,-3.66 -0.3,-1.45 1.84,-4.03 3.23,-6.19l11.35 -18.57c1.03,-1.7 3.18,-4.44 3.71,-6.43l-20.61 5.56c-11.52,3.25 -15.15,10.41 -20.74,18.79l-26.21 40.06c-2.11,3.07 -0.69,2.52 1.21,9.41l15.6 50.63z"/>
    <path class="fil1" d="M213.68 100.51c0,-15.38 22.97,-15.17 22.97,-1.07 0,3.89 0,5.77 -3.58,9.24 -6.9,6.68 -19.39,1.86 -19.39,-8.17zm-9.61 -21.9c-1.95,0 -4.01,-1.01 -6.41,-1.07l-9.64 16c-1.12,1.85 -2.24,3.51 -3.48,5.6l-13.27 21.45c-2.39,3.63 -4.12,6.94 -6.51,10.58l-19.98 32.9c11.15,0 6.12,0.94 17.62,-8.02l10.55 -8.62c1.71,-2.68 -3.83,-11.13 6.99,-24.59 3.06,-3.81 11.8,-8.45 17.72,-8.45 9.45,0 14.5,0.89 21.77,8.14 13.39,13.34 8.51,37.19 -9.65,44.04 -3.66,1.38 -3.2,2.16 -7.08,7.34 -0.96,1.28 -23.23,31.01 -23.73,32.89 1.64,0.44 3.18,1.81 4.81,2.67 2.89,-1.94 5.68,-5.34 12.29,-5.34 2.47,0 3.54,0.87 5.87,1.07 2.37,-3.54 4.76,-7.47 6.98,-11.19l49.11 -79.62c-4.1,-6.12 -7.01,-6.43 -4.27,-18.16l-13.91 -8.52c-1.71,-1.03 -3.22,-1.84 -5,-3.01 -2.63,-1.73 -17.21,-10.95 -19.01,-11.44 -1.94,1.3 -5.61,5.34 -11.75,5.34z"/>
    <path class="fil1" d="M138.36 149.12c0,1.3 2.94,8.1 4.27,9.08 0.45,-1.68 2.06,-3.88 3.03,-5.51l37.13 -60.09c1.49,-2.47 12.68,-19.85 13.26,-22 3.47,1.84 5.54,3.93 10.65,2.67 3.21,-0.79 6.68,-3.85 7.51,-6.94 3.93,2.08 7.51,4.67 11.24,6.92l34.7 21.39c-0.87,3.26 -7.78,10.09 4.27,18.16 -0.49,1.82 -9.31,15.8 -11,18.38 -1.49,2.26 -2.44,4.07 -3.85,6.3 -5.26,8.34 -10.06,16.28 -15.29,24.78 -5.14,8.35 -10.08,16 -15.09,24.44 -1.3,2.18 -2.34,3.7 -3.68,5.94 -1.79,2.99 -10.95,17.14 -11.45,19 -2.79,-0.23 -3.88,-2.67 -8.55,-2.67 -4.1,0 -8.72,3.59 -9.61,6.94 -2.59,-0.21 -6.76,-3.55 -10.15,-5.34 -1.74,2.61 -3.6,4.87 -5.34,7.48 3.78,1.01 21.87,14.42 25.64,14.42 5.96,0 8.93,-7.15 12.92,-13.79l41.13 -66.77c1.83,-2.82 3.31,-5.4 5.13,-8.22l10.36 -16.89c2.22,-3.44 14.85,-22.87 14.85,-25.74 0,-2.59 -0.56,-4.29 -2.51,-6.03l-63.36 -39.2c-16.19,-9.63 -12.96,-8.56 -29.31,17.35 -2.7,4.27 -4.89,8.35 -7.69,12.61l-37.1 60.12c-0.21,0.35 -2.11,3.19 -2.11,3.23z"/>
    <path class="fil1" d="M35.81 195.59c0,2.78 12.24,40.48 13.82,45.46l5.52 17.99c3.03,11.08 6.15,6.83 25.74,1.93 22.96,-5.74 18.23,-4.21 13.25,-22.23l-15.26 -48.84c-1.94,-6.66 -2.74,-8.48 -9.53,-6.72l-28.65 7.68c-2.18,0.58 -4.9,1.91 -4.9,4.72z"/>
    <path class="fil1" d="M177.89 143.24c6.06,-4.06 6.72,-5.88 15.49,-5.88 6.28,0 10.41,3.37 13.49,6.81 4.06,4.54 4.14,7.98 4.14,16.16 5.69,-1.52 11.22,-10.84 11.22,-19.76 0,-10.75 -10.11,-21.37 -20.83,-21.37 -10.78,0 -18.48,4.56 -22.23,14.1 -1.33,3.39 -1.28,5.48 -1.28,9.94z"/>
    <path class="fil1" d="M218.49 99.97c0,9.12 13.36,9.01 13.36,0.54 0,-9.61 -13.36,-8.39 -13.36,-0.54z"/>
   </g>
  </g>
 </g>
</svg>
