<?xml version="1.0" encoding="UTF-8"?>
<!DOCTYPE svg PUBLIC "-//W3C//DTD SVG 1.1//EN" "http://www.w3.org/Graphics/SVG/1.1/DTD/svg11.dtd">
<!-- Creator: CorelDRAW -->
<svg xmlns="http://www.w3.org/2000/svg" xml:space="preserve" width="0.423335in" height="0.423335in" version="1.1" style="shape-rendering:geometricPrecision; text-rendering:geometricPrecision; image-rendering:optimizeQuality; fill-rule:evenodd; clip-rule:evenodd"
viewBox="0 0 131.13 131.13"
 xmlns:xlink="http://www.w3.org/1999/xlink"
 xmlns:xodm="http://www.corel.com/coreldraw/odm/2003">
 <defs>
  <style type="text/css">
   <![CDATA[
    .fil1 {fill:#FEFEFE}
    .fil0 {fill:url(#id0)}
   ]]>
  </style>
  <linearGradient id="id0" gradientUnits="userSpaceOnUse" x1="64.02" y1="-19.62" x2="65.57" y2="131.13">
   <stop offset="0" style="stop-opacity:1; stop-color:#E87100"/>
   <stop offset="1" style="stop-opacity:1; stop-color:#F9CC4D"/>
  </linearGradient>
 </defs>
 <g id="Layer_x0020_1">
  <metadata id="CorelCorpID_0Corel-Layer"/>
  <g id="_2605056807536">
   <path class="fil0" d="M131.13 28.91l0 73.31c0,15.9 -13.01,28.91 -28.91,28.91l-73.31 0c-15.9,0 -28.91,-13.01 -28.91,-28.91l0 -73.31c0,-15.9 13.01,-28.91 28.91,-28.91l73.31 0c15.9,0 28.91,13.01 28.91,28.91z"/>
   <g>
    <path class="fil1" d="M28.61 97.32c0,2.59 -0.07,3.63 1.15,5.97 1.89,3.62 5.45,6.15 10.01,6.15l51.58 0c3.53,0 5.6,-1.37 7.62,-2.96 1.59,-1.26 3.54,-4.82 3.54,-7.24l0 -1.73c0,-3.29 -3.23,-8.81 -4.75,-10.83 -4.75,-6.3 -10.22,-10.57 -17.79,-13.39 -13.1,-4.87 -27.91,-2.66 -38.8,5.41l-2.12 1.73c-2.68,2.51 -3.22,2.99 -5.6,6.14 -1.46,1.93 -4.84,7.65 -4.84,10.75z"/>
    <path class="fil1" d="M43.62 43.24c0,5.11 1.25,8.99 3.89,12.86 1.43,2.1 3.18,3.86 5.24,5.34 11.22,8.09 26.72,3.95 32.7,-8.51 1.41,-2.94 2.05,-5.98 2.05,-9.69 0,-6.94 -4.07,-14.04 -9.51,-17.63 -1.25,-0.83 -2.07,-1.24 -3.45,-1.94 -6.83,-3.44 -15.21,-2.16 -21.3,1.86 -2.81,1.86 -6.23,5.68 -7.56,8.8 -1.09,2.56 -2.06,5.35 -2.06,8.91z"/>
   </g>
  </g>
 </g>
</svg>
