<?xml version="1.0" encoding="UTF-8"?>
<!DOCTYPE svg PUBLIC "-//W3C//DTD SVG 1.1//EN" "http://www.w3.org/Graphics/SVG/1.1/DTD/svg11.dtd">
<!-- Creator: CorelDRAW -->
<svg xmlns="http://www.w3.org/2000/svg" xml:space="preserve" width="0.423335in" height="0.423335in" version="1.1" style="shape-rendering:geometricPrecision; text-rendering:geometricPrecision; image-rendering:optimizeQuality; fill-rule:evenodd; clip-rule:evenodd"
viewBox="0 0 488.77 488.77"
 xmlns:xlink="http://www.w3.org/1999/xlink"
 xmlns:xodm="http://www.corel.com/coreldraw/odm/2003">
 <defs>
  <style type="text/css">
   <![CDATA[
    .fil1 {fill:#FEFEFE}
    .fil0 {fill:url(#id0)}
   ]]>
  </style>
  <linearGradient id="id0" gradientUnits="userSpaceOnUse" x1="238.61" y1="-73.12" x2="244.39" y2="488.77">
   <stop offset="0" style="stop-opacity:1; stop-color:#E87100"/>
   <stop offset="1" style="stop-opacity:1; stop-color:#F9CC4D"/>
  </linearGradient>
 </defs>
 <g id="Layer_x0020_1">
  <metadata id="CorelCorpID_0Corel-Layer"/>
  <g id="_2605052025024">
   <path class="fil0" d="M488.77 107.76l0 273.25c0,59.27 -48.49,107.76 -107.76,107.76l-273.25 0c-59.27,0 -107.76,-48.49 -107.76,-107.76l0 -273.25c0,-59.27 48.49,-107.76 107.76,-107.76l273.25 0c59.27,0 107.76,48.49 107.76,107.76z"/>
   <g>
    <path class="fil1" d="M73.12 241.53l0 142.72c0,12.17 8.97,22.64 19.03,28.07 2.75,1.49 8.42,3.32 12.37,3.32l279.73 0c7.37,0 17.25,-5.04 21.92,-10.19l6.4 -9.3c1.68,-3.59 3.07,-8.35 3.07,-13.34l0 -139.87c0,-5.49 -1.7,-10.7 -3.55,-14.3 -4.03,-7.87 -11.68,-14.33 -20.08,-17.03 -5.95,-1.91 -9.48,-1.5 -17.05,-1.5 -0.71,3.05 -23.74,41.99 -25.69,45.67 3.59,0 25.08,-0.44 27.56,0.27 6.89,1.98 5.24,11.14 -1.86,11.14l-244.77 0c0,17.49 -0.65,11.15 4.48,15.5 12.9,10.94 5.96,35.88 -10.19,35.88 -9.07,0 -15.25,-7.88 -16.77,-17.53 -1.03,-6.5 2,-14.45 6.59,-18.35 5.14,-4.35 4.48,1.98 4.48,-15.5 -3.1,0 -11.42,0.63 -11.42,-5.7 0,-6.99 10.3,-5.72 12.85,-5.71 6.19,0.01 12.37,0 18.55,0 6.77,-12.8 15.3,-26.46 22.61,-39.47 1.3,-2.31 2.44,-3.47 3.08,-6.2 -12.32,0 -52.51,-0.65 -61.35,0.02 -3.66,0.27 -8.81,2.17 -11.46,3.52 -1.77,0.9 -3.15,1.78 -4.76,3.09 -7.48,6.1 -13.77,14.29 -13.77,24.76z"/>
    <path class="fil1" d="M151.62 255.8l27.11 0c0.64,-2.75 6.22,-11.95 7.98,-14.86 1.06,-1.76 1.92,-3.06 2.95,-4.9l67.81 -117.72c3.6,-6.61 7.75,-13.8 17.6,-13.8 6.38,0 8.83,2.42 13.09,4.75l45.21 26.16c33.11,18.5 35.31,19.35 16.59,50.41 -4.85,8.04 -39.35,67.53 -39.92,69.97l26.4 0 28.67 -49.82c2.53,-4.18 4.63,-8.04 7.05,-12.22l14.64 -25.32c7.2,-11.89 10.47,-22.9 -4.27,-31.5l-80.56 -46.46c-5.71,-3.2 -27.09,-17.35 -33.32,-17.35 -6.72,0 -10.62,0.98 -15.18,6.23l-74.87 129.22c-4.76,7.92 -8.8,15.64 -13.55,23.55l-13.42 23.69z"/>
    <path class="fil1" d="M287.2 186.59c-2.94,0 -5.71,-2.63 -5.71,-5.71 0,-2.12 8.48,-15.84 10.48,-19.5 4.92,-9 11.65,-6.16 11.65,0.23 0,2.63 -5.41,11.08 -6.92,13.78 -2.06,3.69 -5.41,11.2 -9.5,11.2zm-96.34 69.22l37.11 0c-1.09,-4.08 -15.61,-23.03 2.67,-43.71 7.5,-8.48 17.34,-10.52 28.01,-10.52 15.03,0 30.69,15.66 30.69,30.68 0,10.86 0.03,13.9 -6.42,23.55l14.27 0c0.63,-2.35 3.83,-7.16 5.24,-9.75 11.86,-21.71 28,-47.11 39.71,-68.75 10.22,-18.86 13.05,-16.59 -2.82,-25.73l-29.44 -16.95c-3.38,-2.03 -6.62,-3.94 -9.88,-5.81l-19.46 -11.22c-8.68,-4.78 -9.55,-1.09 -15.71,10.23 -1.07,1.96 -1.74,2.97 -2.92,4.93 -19.69,32.51 -39.75,70.29 -59.49,103.21 -2.03,3.38 -3.93,6.62 -5.81,9.89 -1.92,3.33 -3.67,6.85 -5.75,9.95z"/>
    <path class="fil1" d="M255.8 258.66c22.19,0 33.76,-32.77 8.84,-44.51 -14.22,-6.7 -32.66,4.7 -32,21.49 0.56,14.03 11.75,23.02 23.16,23.02z"/>
   </g>
  </g>
 </g>
</svg>
