<?xml version="1.0" encoding="UTF-8"?>
<!DOCTYPE svg PUBLIC "-//W3C//DTD SVG 1.1//EN" "http://www.w3.org/Graphics/SVG/1.1/DTD/svg11.dtd">
<!-- Creator: CorelDRAW -->
<svg xmlns="http://www.w3.org/2000/svg" xml:space="preserve" width="198px" height="198px" version="1.1" style="shape-rendering:geometricPrecision; text-rendering:geometricPrecision; image-rendering:optimizeQuality; fill-rule:evenodd; clip-rule:evenodd"
viewBox="0 0 1.61 1.61"
 xmlns:xlink="http://www.w3.org/1999/xlink"
 xmlns:xodm="http://www.corel.com/coreldraw/odm/2003">
 <defs>
  <style type="text/css">
   <![CDATA[
    .fil1 {fill:#FEFEFE}
    .fil0 {fill:url(#id0)}
   ]]>
  </style>
  <linearGradient id="id0" gradientUnits="userSpaceOnUse" x1="0" y1="0.81" x2="1.61" y2="0.81">
   <stop offset="0" style="stop-opacity:1; stop-color:#FF7F00"/>
   <stop offset="1" style="stop-opacity:1; stop-color:#FBB700"/>
  </linearGradient>
 </defs>
 <g id="Layer_x0020_1">
  <metadata id="CorelCorpID_0Corel-Layer"/>
  <rect class="fil0" width="1.61" height="1.61" rx="0.36" ry="0.36"/>
  <g id="_1875335989952">
   <path class="fil1" d="M0.16 0.85c0,0.07 0.1,0.03 0.2,0.03 0.03,0 0.09,0.01 0.1,0.01l0 0.08c0,0.03 -0.01,0.03 -0.02,0.05 -0.01,0.01 -0.02,0.03 -0.04,0.04l-0.05 0.06c-0.03,0.04 -0.01,0.14 0.06,0.1l0.15 -0.08c0.03,-0.02 0.06,-0.03 0.08,-0.05 0.02,-0.01 0.08,-0.05 0.09,-0.05l0.15 0c0.01,0 0.02,0.01 0.03,0.01 0.08,0.06 0.18,0.11 0.27,0.16 0.01,0.01 0.03,0.02 0.05,0.02 0.06,0 0.05,-0.09 0.04,-0.1 -0.01,-0.02 -0.07,-0.08 -0.09,-0.11 -0.04,-0.04 -0.03,-0.02 -0.03,-0.13 0.02,0 0.06,-0.01 0.11,-0.01 0.09,0 0.2,0.04 0.2,-0.03 0,-0.02 -0.05,-0.16 -0.05,-0.19l-0.05 -0.16c-0.01,-0.02 -0.05,-0.02 -0.05,0 0,0.02 0.01,0.03 0.01,0.05l0.09 0.3c-0.19,-0.02 -0.3,-0.02 -0.48,0.07 -0.04,0.02 -0.06,0.03 -0.06,0.08l-0.13 0c0,-0.03 0,-0.04 -0.02,-0.06 -0.07,-0.06 -0.27,-0.1 -0.37,-0.1 -0.04,0 -0.11,0.01 -0.14,0.01l0.08 -0.3c0.01,-0.02 0.02,-0.07 -0.01,-0.07 -0.03,0 -0.03,0.05 -0.04,0.08l-0.07 0.24c-0.01,0.01 -0.01,0.03 -0.01,0.05z"/>
   <path class="fil1" d="M0.28 0.75c0,0.06 0.06,0.04 0.08,0.05 0.02,0 0.03,0 0.04,0 0.13,0 0.28,0.06 0.38,0.13l0 -0.4c0,-0.02 0,-0.02 -0.01,-0.03 -0.1,-0.07 -0.2,-0.1 -0.33,-0.12 -0.06,0 -0.06,0.02 -0.08,0.09l-0.07 0.24c-0.01,0.01 -0.01,0.02 -0.01,0.04z"/>
   <path class="fil1" d="M0.83 0.93c0.09,-0.06 0.19,-0.1 0.31,-0.12 0.06,-0.01 0.07,-0.01 0.12,-0.01 0.01,-0.01 0.04,0 0.06,-0.02 0.03,-0.02 0.01,-0.05 0,-0.08l-0.08 -0.29c-0.01,-0.01 -0.02,-0.03 -0.04,-0.03 -0.06,0 -0.15,0.02 -0.19,0.04 -0.04,0.01 -0.18,0.07 -0.18,0.1l0 0.41z"/>
  </g>
 </g>
</svg>
