<?xml version="1.0" encoding="UTF-8"?>
<!DOCTYPE svg PUBLIC "-//W3C//DTD SVG 1.1//EN" "http://www.w3.org/Graphics/SVG/1.1/DTD/svg11.dtd">
<!-- Creator: CorelDRAW -->
<svg xmlns="http://www.w3.org/2000/svg" xml:space="preserve" width="0.423335in" height="0.423335in" version="1.1" style="shape-rendering:geometricPrecision; text-rendering:geometricPrecision; image-rendering:optimizeQuality; fill-rule:evenodd; clip-rule:evenodd"
viewBox="0 0 121.64 121.64"
 xmlns:xlink="http://www.w3.org/1999/xlink"
 xmlns:xodm="http://www.corel.com/coreldraw/odm/2003">
 <defs>
  <style type="text/css">
   <![CDATA[
    .fil1 {fill:#FEFEFE}
    .fil0 {fill:url(#id0)}
   ]]>
  </style>
  <linearGradient id="id0" gradientUnits="userSpaceOnUse" x1="59.38" y1="-18.2" x2="60.82" y2="121.64">
   <stop offset="0" style="stop-opacity:1; stop-color:#E87100"/>
   <stop offset="1" style="stop-opacity:1; stop-color:#F9CC4D"/>
  </linearGradient>
 </defs>
 <g id="Layer_x0020_1">
  <metadata id="CorelCorpID_0Corel-Layer"/>
  <g id="_2606054632624">
   <path class="fil0" d="M121.64 26.82l0 68c0,14.75 -12.07,26.82 -26.82,26.82l-68 0c-14.75,0 -26.82,-12.07 -26.82,-26.82l0 -68c0,-14.75 12.07,-26.82 26.82,-26.82l68 0c14.75,0 26.82,12.07 26.82,26.82z"/>
   <g>
    <path class="fil1" d="M32.46 26.43l0 32.25c0.86,-0.02 2.07,-0.38 2.88,-0.49 0.53,-0.07 1,-0.02 1.52,-0.07 9.07,-0.96 18.45,4.96 21.9,13.24 1.68,4.02 1.47,4.4 1.9,8.2l-0.03 3.92 34.74 0c1.32,0 2.81,-0.93 3.51,-1.63 0.7,-0.7 1.63,-2.18 1.63,-3.51l0 -11.87c-4.36,0 -11.24,0.48 -14.76,-1.01 -12.7,-5.38 -9.38,-24.51 5.55,-24.51l9.22 0 0 -11.87c0,-2.34 -2.47,-5.14 -5.32,-5.14l-60.26 0c-1.11,0 -2.48,1.37 -2.48,2.48z"/>
    <path class="fil1" d="M26.79 81.9c0,-4.88 -0.62,-4.08 8.51,-4.08l0 -6.91c0,-2 2.43,-1.6 4.08,-1.6 0.88,0 1.6,0.72 1.6,1.6l0 6.91 6.91 0c2.01,0 1.6,2.43 1.6,4.08 0,0.88 -0.72,1.6 -1.6,1.6l-6.91 0 0 6.91c0,2 -2.43,1.6 -4.08,1.6 -0.88,0 -1.6,-0.72 -1.6,-1.6l0 -6.91 -6.91 0c-0.88,0 -1.6,-0.72 -1.6,-1.6zm-5.67 -1.95c0,3.28 0.22,5.25 1.59,7.98 0.89,1.76 1.99,3.38 3.32,4.83 0.38,0.42 0.63,0.49 1.06,0.89 1.22,1.09 2.3,1.71 3.76,2.44 4.23,2.08 10.19,2.19 14.42,0.06 3.89,-1.97 6.25,-4.17 8.21,-8.09 2.71,-5.42 2.07,-12.38 -1.43,-17.24l-4.08 -4.08c-0.92,-0.67 -1.58,-0.99 -2.58,-1.49 -5.28,-2.67 -12.34,-1.96 -17.12,1.49 -0.42,0.31 -0.72,0.52 -1.09,0.86 -1.48,1.32 -1.66,1.38 -2.98,3.22 -0.67,0.92 -0.99,1.58 -1.49,2.58 -0.86,1.7 -1.59,4.02 -1.59,6.56z"/>
    <path class="fil1" d="M83.5 53.19l0 1.06c0,3.27 3.29,6.56 6.56,6.56l10.46 0 0 -14.18 -10.46 0c-3.27,0 -6.56,3.29 -6.56,6.56z"/>
   </g>
  </g>
 </g>
</svg>
